<svg viewBox="0 0 2048 1228" width="1300" height="780" xmlns="http://www.w3.org/2000/svg">
    <path transform="translate(0)" d="m0 0h2048v1228h-2048z" fill="none"/>
    <path transform="translate(996,133)" d="m0 0h55l34 3 35 6 27 6 30 9 32 12 24 11 29 15 23 14 17 12 14 10 16 13 11 9 17 16 18 18 7 8 13 15 10 13 13 18 10 15 13 22 14 27 9 19 9 23 11 33 7 27 6 32 4 31 1 14v58l-3 34-6 35-5 23-9 30-12 33-11 24-8 17-14 24-10 16-16 23-13 16-9 11-11 12-12 13-12 12-8 7-11 10-10 8-17 13-17 12-21 13-25 14-16 8-28 12-34 12-33 9-37 7-23 3-25 2h-49l-27-2-34-5-34-7-30-9-34-12-15-7-23-11-24-13-22-14-17-12-13-10-11-9-14-12-10-9-24-24-7-8-9-11-13-16-10-14-8-12-10-16-10-17-10-19-14-31-12-33-10-36-6-31-4-27-2-22v-63l3-32 2-12 6-32 7-27 12-36 6-15 8-19 8-16 15-27 14-22 13-18 11-14 14-17 15-16 22-22 8-7 16-13 15-12 27-18 20-12 14-8 16-8 17-8 25-10 30-10 26-7 31-6 27-4z" fill="#5a6acf"/>
    <path transform="translate(711,546)" d="m0 0 9 3 26 12 25 12 28 13 8 5 1 4-2 8 36 17 13 6 23 3 95 10 35 4h8l16-8 16-6 9-2 13 1 13 5 11 7 14 11 15 10 9 4 4 1h16l18-6 31-16 28-13 13-6-1-4v-8l8-5 27-13 18-8 29-14 10-4 7 1 5 8 14 29 11 24 19 40 13 28 16 34 14 30 8 17-1 6-8 5-68 32-15 7h-7l-4-5-1-2-6 2-40 19-7 3h-6l-5-6-5-11v-2l-16 10-19 13 1 15-3 9-5 6-9 4h-16l-4-1 8 16 1 4v11l-4 8-4 5-9 4-4 1h-9l-16-4-15-7 3 7 1 11-3 9-6 7-5 3-4 1h-15l-13-4-15-7 4 9 1 11-4 10-8 7-7 2h-12l-15-5-4-2-4 1-20 14-4 3-10 2-12-5-8-6-8-9-3-7-4 1h-13l-14-7-9-8-7-11-3-4-4 3-4 1h-11l-13-5-11-8-8-11-2-5v-7l-10-2-9-6-9-8-6-10-2-6v-9l4-7 10-8 4-4-5-2-11-7-18-12-14-10-13-10-8-6-2-1-1 5-6 12-3 3h-6l-27-13-24-11-3 1-3 5-2 1h-6l-27-13-15-7-34-16-14-7-2-3 1-6 12-26 16-34 13-28 14-29 13-28 16-34 12-26z" fill="#FEFEFE"/>
    <path transform="translate(859,642)" d="m0 0 18 1 92 10 24 3-5 4-21 12-16 8-14 6-43 15-13 7-4 5-2 3v8l5 9 8 7 13 6 10 2h21l21-4 27-9 33-13 10-3h10l6 5 6 10 23 16 26 17 17 11 25 16 19 12 20 13 15 10 14 10 8 8 6 10 1 8-3 5-3 1h-12l-11-4-19-12-13-10-12-8-16-11-15-10-11-7-8-3-7 1-2 2v7l7 8 13 11 14 10 18 13 19 13 19 14 9 10 4 8 1 8-3 5-2 2-4 1h-7l-13-4-14-8-18-13-19-13-17-12-15-10-19-12-9-4-6 2-2 3 1 7 7 8 10 8 13 10 18 13 17 12 13 10 7 8 5 11-1 7-6 4h-10l-14-5-16-10-43-29-2-2-1-11-4-8-6-5-7-3h-15l-7 1-11-7-7-13-5-4-8-3h-11l-11 3-16 8-8 6-2-1 3-10v-8l-4-9-6-5-4-2-10-1-14 3-14 7-9 6-6-2-17-11-22-15-16-12-14-11-1-4 17-36 16-34 13-28 19-40z" fill="#04309B"/>
    <path transform="translate(849,283)" d="m0 0 349 1 5 5v297l-13 17h-1l-1-61v-244l-4 4h-2l-2 4-29 29-8 7-7 8-1 6h-9v25l-1 1h-6l-1-14-42 42 34 1v5l-42 1-7 7-7 8-6 5 79 1 9 1v4l-127 1-120-1v-5l112-1-18-18-1-2-67-1v-5h60l-1-5h-2v-2h-2v-2l-4-2-9-10-2-1v-2h-2v-2h-2v-2l-6-1h-10l-6-3-4-7-1-12-6-7-8-7-46-46v-2h-27v307l-5-1-7-3v-9l-3-12v-290l2-4 3-2z" fill="#5a6acf"/>
    <path transform="translate(1054,642)" d="m0 0h13l10 4 16 11 10 8 14 9 16 6 5 1h11l19-5 18-8 5-2 13 28 9 20 8 16 13 28 17 36 9 20-4 4-11 7-21 14-7-6-10-9-38-25-25-16-19-12-17-11-20-13-22-15-11-8-6-9-4-5-8-4h-16l-17 5-39 15-23 7-12 2h-17l-11-3-8-5-5-5 1-4 11-5 20-7 28-10 25-12 19-11 29-17 25-12z" fill="#03309B"/>
    <path transform="translate(716,563)" d="m0 0 20 9 38 18 16 7 1 2-19 40-16 34-13 28-11 23-13 28-10 22-9 17-9-3-25-12-41-19 3-9 16-33 13-28 16-34 17-36 13-28 12-25z" fill="#03309B"/>
    <path transform="translate(1331,585)" d="m0 0 3 3 14 29 11 24 13 27 9 20 17 36 13 27 11 24 1 4-74 35-2-1-13-28-19-41-19-40-7-15-13-28-18-37-1-4 24-11 16-8 28-13z" fill="#03309B"/>
    <path transform="translate(849,283)" d="m0 0 349 1 5 5v297l-13 17h-1l-1-61v-244l-4 4h-2l-2 4-29 29-8 7-7 8-1 6h-9v25l-1 1h-5v-16l-2-1 2-9h-9l-1-5h23l2-4 47-47h-315l12 11 11 12 25 25 8 7 1 3h3l2-4 4-3 3-1h7l7 3 4 6 1 4v7l-3 7-5 5h-12l-6-3-4-7-1-12-6-7-8-7-46-46v-2h-27v307l-5-1-7-3v-9l-3-12v-290l2-4 3-2z" fill="#FEFEFE"/>
    <path transform="translate(769,239)" d="m0 0h369l5 3 2 4v19l-1 1h-14v-12h-351v270l-1 32-6-2-8-4v-305z" fill="#FEFEFE"/>
    <path transform="translate(798,616)" d="m0 0 9 3 29 14 8 4-1 5-7 15-13 28-19 40-13 28-17 36-9 19-5-1-23-11-17-8-1-4 5-10 2-1 5 8 5 4 9 3 10-1 6-3 7-8 2-8-1-10-5-8-5-4-6-2h-11l-4 1 2-6 14-29 13-28 16-35 7-14 7-16z" fill="#05329C"/>
    <path transform="translate(1248,638)" d="m0 0h2l18 38 14 30 8 17 13 28 7 15-2 1-4-1h-8l-8 3-5 4-4 7-1 11 4 11 6 5 8 3h7l9-3 6-5 3-8 4 4 4 8-1 4-23 11-19 9-4-1-26-56-16-34-19-40-15-32-3-8 34-16z" fill="#03309B"/>
    <path transform="translate(1017,466)" d="m0 0 119 1 1 3-1 2-95 1 20 20v2h75l1 5-68 1 20 20 1 2 47 1-1 4-42 1-4-1h-201v-4l70-1 22-22-92-1 1-5 98-1 21-21-120-1 1-5z" fill="#5a6acf"/>
    <path transform="translate(1331,585)" d="m0 0 3 3 14 29 11 24 13 27 9 20 11 24h-3l-36-36h-7l-11 3-8-1-9-5-7-1-9 6-10 10-3 1-13-28-18-37-1-4 24-11 16-8 28-13z" fill="#04319B"/>
    <path transform="translate(1248,638)" d="m0 0h2l18 38 7 15-1 4-10 9-9 10-7 7-3 5-1 10 6 15v6l-3-3-13-28-14-29-13-28-4-10 34-16z" fill="#04319B"/>
    <path transform="translate(1014,886)" d="m0 0 9 1 4 3 1 8-4 11-8 10-10 9-10 8-16 13-10 9-8 4-9-4-9-7-5-8-1-5 5-5 13-10 14-11 16-13 13-8 10-4z" fill="#04319B"/>
    <path transform="translate(962,860)" d="m0 0 10 1 3 4v9l-6 12-13 13-14 11-14 12h-2v2l-8 7-6 4-8-1-10-5-8-8-2-4v-5l11-9 38-28 11-8 13-6z" fill="#04319B"/>
    <path transform="translate(1403,740)" d="m0 0 3 1 17 36v2l-74 35-2-1-4-9 1-5z" fill="#04319B"/>
    <path transform="translate(1269,533)" d="m0 0 9 1 5 6 1 6-4 8-10 13-13 17-8 5-16 8-5 5-4 8-1 4v8l-19 10-9 3-11 6 2-4 9-12 14-18 26-34 14-18 12-16 5-5z" fill="#FEFEFE"/>
    <path transform="translate(1038,929)" d="m0 0h11l5 5v7l-6 12-9 10-13 10-17 12-4 1-10-5-7-8-2-5 1-5 8-6 16-13 18-12z" fill="#05329B"/>
    <path transform="translate(897,842)" d="m0 0h12l3 3v10l-4 8-11 12-12 11-12 12-4 1-8-4-7-6-6-10 1-4 8-7 14-11 13-9z" fill="#05319B"/>
    <path transform="translate(1168,879)" d="m0 0 9 6 9 10 4 8 1 8-3 5-2 2-4 1h-7l-13-4-14-8-4-4z" fill="#05329C"/>
    <path transform="translate(1088,522)" d="m0 0 2 1 47 1-1 4-42 1-4-1h-201v-4l73-1 126 1z" fill="#FEFEFE"/>
    <path transform="translate(1060,494)" d="m0 0 76 1 1 4-72 1h-82l-94-1 1-4z" fill="#FEFEFE"/>
    <path transform="translate(1017,466)" d="m0 0 119 1v4l-99 1h-26l-122-1 1-4z" fill="#FEFEFE"/>
    <path transform="translate(1e3 438)" d="m0 0h42l90 1v4l-127 1-120-1v-4z" fill="#FEFEFE"/>
    <path transform="translate(932,551)" d="m0 0h186l18 1v4h-247v-4z" fill="#FEFEFE"/>
    <path transform="translate(889,608)" d="m0 0h247l1 4h-248z" fill="#FEFEFE"/>
    <path transform="translate(889,580)" d="m0 0h247v4l-238 1-9-1z" fill="#FEFEFE"/>
    <path transform="translate(902,898)" d="m0 0 8 6 15 15 1 5-8 7-6 4-8-1-10-5-8-8-2-4v-5l11-9z" fill="#05329B"/>
    <path transform="translate(866,861)" d="m0 0 7 6 13 14 2 2-15 15-4 1-8-4-7-6-6-10 1-4 8-7z" fill="#05329C"/>
    <path transform="translate(936,350)" d="m0 0h7l7 3 4 6 1 4v7l-3 7-5 5h-12l-6-3-4-7v-13l6-7z" fill="#FDFDFD"/>
    <path transform="translate(977,411)" d="m0 0h96l37 1v4l-43 1h-85l-67-1v-4z" fill="#FEFEFE"/>
    <path transform="translate(1018,351)" d="m0 0h21l4 4 1 5-2 5-5 4 4 4 4 6v3h-6l-7-9-2-3-6-1v13h-6z" fill="#FEFEFE"/>
    <path transform="translate(960,351)" d="m0 0h6l7 10 5 8 1-18h6v30l-1 1h-5l-6-8-6-10-1 17-5 1-1-1z" fill="#FEFEFE"/>
    <path transform="translate(1058,351)" d="m0 0h7l4 8 8 20v3h-6l-3-6-13-1-1 6-1 1h-6l1-6 8-20z" fill="#FEFEFE"/>
    <path transform="translate(1125,922)" d="m0 0 4 2 5 11-1 7-6 4h-10l-12-4 5-5z" fill="#07349C"/>
    <path transform="translate(1091,350)" d="m0 0h7l6 3 3 6-1 1h-6l-2-3h-8l-3 6v7l2 5 2 1h6l4-5 6 1-2 7-2 2-4 1h-10l-5-3-4-8v-9l4-8 4-3z" fill="#FEFEFE"/>
    <path transform="translate(904,350)" d="m0 0h8l6 4 3 5-7 1-3-3h-7l-3 4v11l3 4h7l3-5 6 1-1 5-4 4-3 1h-9l-5-3-4-6-1-9 2-7 6-6z" fill="#FEFEFE"/>
    <path transform="translate(1066,948)" d="m0 0 4 2 4 5 3 6v9l-3 3-3 1h-7l-11-3v-3l8-10z" fill="#08359D"/>
    <path transform="translate(936,356)" d="m0 0h8l4 4 1 9-3 6-4 2h-6l-4-4-1-8 1-5z" fill="#5a6acf"/>
    <path transform="translate(1133,350)" d="m0 0 2 1v5h-9v25l-1 1h-5v-16l-2-1 2-9h-9l-1-5z" fill="#FEFEFE"/>
    <path transform="translate(989,351)" d="m0 0h25v5h-9v25l-1 1h-5v-26h-10z" fill="#FEFEFE"/>
    <path transform="translate(1298,779)" d="m0 0 7 1 4 5v6l-4 5-7 1-5-3-2-7 3-6z" fill="#0A369D"/>
    <path transform="translate(745,757)" d="m0 0h6l5 4v9l-4 4-6 1-6-4-1-8 4-5z" fill="#09369D"/>
    <path transform="translate(940,935)" d="m0 0 7 6 16 16 1 4-2 1-9-4-9-7-5-8-1-5z" fill="#09359D"/>
    <path transform="translate(1108,637)" d="m0 0h29l-1 4h-23l-5-3z" fill="#FEFEFE"/>
    <path transform="translate(1024,356)" d="m0 0h12l1 1v5l-2 2h-11z" fill="#5a6acf"/>
    <path transform="translate(1321,794)" d="m0 0 4 4 4 8-1 4-6 3h-2l1-3z" fill="#5a6acf"/>
    <path transform="translate(1118,366)" d="m0 0h2v16h-1zm-1 1m-1 1m-1 1m-1 1m-1 1m-3 1 3 1-9 9v-3l2-5z" fill="#5a6acf"/>
    <path transform="translate(1061,359)" d="m0 0h2l3 11h-8l1-6z" fill="#5a6acf"/>
    <path transform="translate(1086,948)" d="m0 0 6 2 6 3-3 1-2 4h-3z" fill="#5a6acf"/>
</svg>
